<svg width="58" height="58" viewBox="0 0 58 58" fill="none" xmlns="http://www.w3.org/2000/svg"><path d="M13.979 35.924c-.489 0-.733-.212-.733-.635v-.469c0-.338.156-.673.469-1.005l2.92-3.077c.879-.93 1.683-1.758 2.412-2.48.729-.73 1.094-1.465 1.094-2.207 0-.742-.186-1.286-.557-1.631-.365-.352-.83-.527-1.396-.527-.899 0-1.524.208-1.875.625a4.01 4.01 0 0 0-.762 1.337c-.15.463-.423.629-.82.498l-.987-.332c-.319-.11-.41-.416-.273-.918.254-.93.771-1.728 1.552-2.392.782-.67 1.94-1.006 3.477-1.006 1.602 0 2.764.414 3.486 1.24.723.82 1.084 1.713 1.084 2.676 0 1.263-.527 2.373-1.582 3.33a51.579 51.579 0 0 0-2.87 2.783l-1.661 1.748v.059c.39-.026.716-.039.976-.039h4.561c.488 0 .733.212.733.635v1.152c0 .423-.245.635-.733.635H13.98ZM25.873 24.81c-.17-.32-.055-.567.342-.743.377-.169.771-.407 1.181-.713.41-.306.746-.621 1.006-.947.293-.364.573-.547.84-.547h1.553c.39 0 .586.196.586.586v12.89c0 .391-.195.587-.586.587h-1.563c-.39 0-.586-.196-.586-.586V26.05c0-.26.014-.521.04-.781h-.04a3.706 3.706 0 0 1-.664.654c-.24.182-.485.325-.732.43-.306.13-.537.045-.693-.254l-.684-1.29Zm8.418 4.941c-.39 0-.586-.163-.586-.488v-.84c0-.326.195-.488.586-.488h4.023v-4.024c0-.39.163-.586.489-.586h.84c.325 0 .488.195.488.586v4.024h4.023c.39 0 .586.162.586.488v.84c0 .325-.195.488-.586.488h-4.023v4.023c0 .391-.163.586-.489.586h-.84c-.325 0-.488-.195-.488-.586v-4.023h-4.023Z" fill="#006BE6"/><circle cx="28.888" cy="28.888" r="27.388" stroke="#006BE6" stroke-width="3"/></svg>