<svg width="37" height="37" viewBox="0 0 37 37" fill="none" xmlns="http://www.w3.org/2000/svg"><path d="m24.55 26.986 3.035-14.309c.124-.605.051-1.039-.217-1.3-.268-.262-.623-.31-1.063-.145l-17.84 6.876c-.399.151-.67.323-.815.516-.145.193-.162.375-.052.547.11.172.33.306.66.403l4.564 1.424 10.592-6.669c.29-.193.51-.234.66-.124.097.07.07.172-.082.31l-8.569 7.743-.33 4.707c.317 0 .627-.151.93-.454l2.23-2.147 4.624 3.407c.881.495 1.439.234 1.673-.785ZM37 18.5c0 2.505-.489 4.9-1.466 7.185-.977 2.285-2.292 4.254-3.944 5.905-1.651 1.652-3.62 2.967-5.905 3.944A18.085 18.085 0 0 1 18.5 37c-2.505 0-4.9-.489-7.185-1.466-2.285-.977-4.254-2.292-5.905-3.944-1.652-1.651-2.967-3.62-3.944-5.905A18.085 18.085 0 0 1 0 18.5c0-2.505.489-4.9 1.466-7.185C2.443 9.03 3.758 7.06 5.41 5.41c1.651-1.652 3.62-2.967 5.905-3.944A18.085 18.085 0 0 1 18.5 0c2.505 0 4.9.489 7.185 1.466 2.285.977 4.254 2.292 5.905 3.944 1.652 1.651 2.967 3.62 3.944 5.905A18.085 18.085 0 0 1 37 18.5Z" fill="#006BE6"/></svg>